{"title":"Verdict.on.Auschwitz.1993.DVDRip.XviD-UNiTED","uid":5581713,"size":1042536071,"categoryP":"video","categoryS":"movies","magnet":"?xt=urn:btih:51ec21720a66973eb51eb16bd43b312f70ece289&amp;dn=Verdict.on.Auschwitz.1993.DVDRip.XviD-UNiTED&amp;tr=udp%3A%2F%2Ftracker.openbittorrent.com%3A80&amp;tr=udp%3A%2F%2Fopen.demonii.com%3A1337&amp;tr=udp%3A%2F%2Ftracker.coppersurfer.tk%3A6969&amp;tr=udp%3A%2F%2Fexodus.desync.com%3A6969","seeders":1,"leechers":1,"uploader":"Catalin01","files":-1,"time":1274563382,"description":"Format                           : AVI\nFormat/Info                      : Audio Video Interleave\nFile size                        : 333 MiB\nDuration                         : 58mn 54s\nOverall bit rate                 : 791 Kbps\n\nVideo\nID                               : 0\nFormat                           : MPEG-4 Visual\nFormat profile                   : Advanced Simple@L4\nFormat settings, BVOP            : No\nFormat settings, QPel            : No\nFormat settings, GMC             : No warppoints\nFormat settings, Matrix          : Default (H.263)\nCodec ID                         : XVID\nCodec ID/Hint                    : XviD\nDuration                         : 58mn 54s\nBit rate                         : 650 Kbps\nWidth                            : 640 pixels\nHeight                           : 480 pixels\nDisplay aspect ratio             : 4:3\nFrame rate                       : 29.970 fps\nResolution                       : 8 bits\nColorimetry                      : 4:2:0\nScan type                        : Progressive\nBits/(Pixel*Frame)               : 0.071\nStream size                      : 274 MiB (82%)\nWriting library                  : Magic0432\n\nAudio\nID                               : 1\nFormat                           : MPEG Audio\nFormat version                   : Version 1\nFormat profile                   : Layer 3\nMode                             : Joint stereo\nFormat_Settings_ModeExtension    : MS Stereo\nCodec ID                         : 55\nCodec ID/Hint                    : MP3\nDuration                         : 58mn 54s\nBit rate mode                    : Constant\nBit rate                         : 128 Kbps\nChannel(s)                       : 2 channels\nSampling rate                    : 44.1 KHz\nStream size                      : 53.9 MiB (16%)\nAlignment                        : Aligned on interleaves\nInterleave, duration             : 26 ms (0.78 video frame)\n","torrent":{"xt":"urn:btih:51ec21720a66973eb51eb16bd43b312f70ece289","amp;dn":"Verdict.on.Auschwitz.1993.DVDRip.XviD-UNiTED","amp;tr":["udp%3A%2F%2Ftracker.openbittorrent.com%3A80","udp%3A%2F%2Fopen.demonii.com%3A1337","udp%3A%2F%2Ftracker.coppersurfer.tk%3A6969","udp%3A%2F%2Fexodus.desync.com%3A6969"],"infoHash":"51ec21720a66973eb51eb16bd43b312f70ece289","infoHashBuffer":{"type":"Buffer","data":[81,236,33,114,10,102,151,62,181,30,177,107,212,59,49,47,112,236,226,137]},"announce":[],"urlList":[]}}